<?xml version="1.0" encoding="UTF-8"?>
<svg id="_レイヤー_2" data-name="レイヤー 2" xmlns="http://www.w3.org/2000/svg" viewBox="0 0 135 136.61">
  <defs>
    <style>
      .cls-1 {
        fill: #fff;
        stroke-width: 0px;
      }
    </style>
  </defs>
  <g id="_レイヤー_1-2" data-name="レイヤー 1">
    <g>
      <path class="cls-1" d="m127.38,18.75l-38.81,30.61-1.91,2.41.57-2.21v-16.49c0-3.22-1.36-5.38-4.03-6.42-2.97-1.15-5.39.34-6.58,1.33-.44.37-1.1.96-1.28,1.13l-8.51,8.22,7.97,8.53v15.82c0,.5.02.89.03,1.08.17,3.55,2.7,5.29,4.17,5.75.7.22,1.42.33,2.14.33,1.52,0,3.07-.48,4.45-1.42,1.01-.67,1.6-1.08,1.78-1.23l47.33-37.34.28-.22-7.62-9.88Z"/>
      <path class="cls-1" d="m18.14,7.71l30.25,39.27,2.38,1.93-2.18-.57h-16.29c-3.18,0-5.32,1.37-6.34,4.08-1.13,3,.34,5.46,1.31,6.65.36.45.95,1.12,1.11,1.29l8.12,8.61,8.43-8.06h15.63c.49,0,.88-.02,1.07-.03,3.51-.18,5.22-2.73,5.68-4.22.22-.7.33-1.43.33-2.17,0-1.54-.47-3.1-1.4-4.51-.66-1.02-1.07-1.62-1.22-1.8L28.13.29l-.22-.29-9.76,7.71Z"/>
      <path class="cls-1" d="m7.62,117.86l38.81-30.61,1.91-2.41-.57,2.21v16.49c0,3.22,1.36,5.38,4.03,6.42,2.97,1.15,5.39-.34,6.58-1.33.44-.37,1.1-.96,1.28-1.13l8.51-8.22-7.97-8.53v-15.82c0-.5-.02-.89-.03-1.08-.17-3.55-2.7-5.29-4.17-5.75-.7-.22-1.42-.33-2.14-.33-1.52,0-3.07.48-4.45,1.42-1.01.67-1.6,1.08-1.78,1.23L.28,107.76l-.28.22,7.62,9.88Z"/>
      <path class="cls-1" d="m116.47,128.91l-30.25-39.27-2.38-1.93,2.18.57h16.29c3.18,0,5.32-1.37,6.34-4.08,1.13-3-.34-5.46-1.31-6.65-.36-.45-.95-1.12-1.11-1.29l-8.12-8.61-8.43,8.06h-15.63c-.49,0-.88.02-1.07.03-3.51.18-5.22,2.73-5.68,4.22-.22.7-.33,1.43-.33,2.17,0,1.54.47,3.1,1.4,4.51.66,1.02,1.07,1.62,1.22,1.8l36.9,47.9.22.29,9.76-7.71Z"/>
    </g>
  </g>
</svg>