<?xml version="1.0" encoding="UTF-8"?>
<svg id="_レイヤー_2" data-name="レイヤー 2" xmlns="http://www.w3.org/2000/svg" viewBox="0 0 209.83 154.2">
  <defs>
    <style>
      .cls-1 {
        fill: #fff;
        stroke-width: 0px;
      }
    </style>
  </defs>
  <g id="_レイヤー_1-2" data-name="レイヤー 1">
    <path class="cls-1" d="m186.38,0l-119.46,94.24-5.88,7.41,1.74-6.79v-50.76c0-9.92-4.17-16.57-12.42-19.76-9.14-3.53-16.6,1.04-20.24,4.09-1.36,1.13-3.4,2.97-3.93,3.47L0,57.19l24.52,26.27v48.7c0,1.53.07,2.75.1,3.32.53,10.94,8.32,16.27,12.83,17.7,2.14.68,4.36,1.01,6.6,1.01,4.69,0,9.44-1.47,13.71-4.36,3.11-2.07,4.91-3.32,5.48-3.8L208.95,31.09l.88-.69L186.38,0Z"/>
  </g>
</svg>