<?xml version="1.0" encoding="UTF-8"?>
<svg id="_レイヤー_2" data-name="レイヤー 2" xmlns="http://www.w3.org/2000/svg" viewBox="0 0 259.2 381.11">
  <defs>
    <style>
      .cls-1 {
        fill: #30170f;
      }

      .cls-1, .cls-2, .cls-3 {
        stroke-width: 0px;
      }

      .cls-2 {
        fill: #fffffc;
      }

      .cls-3 {
        fill: #eb7800;
      }
    </style>
  </defs>
  <g id="_レイヤー_1-2" data-name="レイヤー 1">
    <g>
      <g>
        <path class="cls-1" d="m255.13,41.19c-2.28-20.47-17.19-35.07-38.9-38.08C200.61.94,165.43-.02,129.76,0h-.33C93.77-.02,58.59.94,42.97,3.11,21.26,6.12,6.35,20.71,4.07,41.19.22,75.73-.13,144,.03,191.65c.17,48.8,1.74,90.57,3.57,112.13,1.68,19.84,17.12,32.06,39.13,35.76,20.13,3.38,153.59,3.38,173.73,0,22.01-3.7,37.28-15.97,39.5-35.76,2.42-21.56,3.03-63.33,3.2-112.13.17-48.8-.32-117.06-4.04-150.46Z"/>
        <path class="cls-2" d="m100.31,55.08c-5.76-.26-52.12-.08-52.59-.08h-.34v9.8l39.93.04c.27,0,.38.21.4.27.03.06.09.29-.11.47l-46.17,42.2-.25.23,6.9,7.48.25-.22c2.14-1.9,52.45-46.67,55.71-51.02.97-1.29,1.53-2.33,1.53-3.82,0-3.01-2.16-5.21-5.25-5.35Z"/>
        <rect class="cls-2" x="59.23" y="38.86" width="45.06" height="9.8"/>
        <rect class="cls-2" x="159.83" y="38.63" width="42.75" height="9.8"/>
        <rect class="cls-2" x="152.03" y="230.92" width="51.3" height="9.41"/>
        <path class="cls-3" d="m132.35,74.24l-31.51,24.63-1.16,1.14.15-.94v-13.22c0-2.61-1.11-4.35-3.3-5.19-2.42-.93-4.41.27-5.38,1.07-.36.3-.89.77-1.04.9l-6.94,6.63,6.48,6.86v12.67c0,.39.02.71.03.87.14,2.87,2.21,4.28,3.41,4.65.57.18,1.16.27,1.76.27,1.24,0,2.49-.38,3.6-1.12l.14-.1c.59-.39,1.16-.77,1.34-.92l38.4-29.94.27-.21-6.25-8.04Z"/>
        <path class="cls-2" d="m174.36,69.8c-2.75-.14-7.91-.16-12.46-.17-2.86,0-5.33-.01-6.74-.05-.96-.03-1.21-.15-1.21-1.2,0-1.09,0-29.27,0-29.27v-.34h-11.07v.34c0,1.37-.07,33.63.04,35.27.1,1.56.65,2.93,1.5,3.78,1.07,1.07,2.57,1.24,3.6,1.29.96.04,3.95.04,7.73.05,6.07.01,13.62.02,17.65.18,15.15.59,28.58,11.45,28.74,23.23.01.88-.23,1.11-1.23,1.18-1.04.07-57.95,0-58.53,0h-.34v9.99h.34c1.75,0,29.5.02,48.65.02,9.91,0,17.51,0,18-.02,3.47-.11,5.51-2.04,5.47-5.15-.32-21.82-16.83-37.91-40.14-39.12Z"/>
        <path class="cls-2" d="m127,198.33c-.64-.51-64.4-51.13-68.18-53.97-2.31-1.73-4.88-2.26-7.44-1.54-2.04.58-4.12,2.84-4.18,6.03-.07,4.26.02,57.28.03,57.81v.34h11.32v-.34c0-.39-.03-38.71.01-46.38,0-.36.14-.6.4-.73.34-.16.81-.1,1.13.15,1.76,1.36,59.57,46.68,60.16,47.14l.27.21,6.75-8.51-.27-.21Z"/>
        <g>
          <rect class="cls-2" x="94.16" y="137.27" width="28.38" height="8.82"/>
          <rect class="cls-2" x="94.16" y="152.38" width="28.38" height="8.82"/>
        </g>
        <path class="cls-2" d="m154.66,137.09v-.34h-11.7l-.02,8.59c-.07,24.28-.1,35.36.18,61.36v.34h11.43v-.34c.18-24.56.22-46.03.12-69.61Z"/>
        <path class="cls-2" d="m122.16,292.51c-.62,0-61.78.06-62.79,0-.94-.06-1.19-.28-1.22-1.1-.04-.95,0-23.66,0-23.89v-.34h-10.95v.34c0,1.15-.05,28.11,0,29.61.11,3.56,1.71,5.24,5.19,5.46.81.05,1.54.08,10.47.08s25.93-.03,59.3-.08h.34v-10.08s-.33,0-.33,0Z"/>
        <path class="cls-2" d="m214.12,252.65c-.11-3.43-2.18-5.41-5.85-5.57-2.23-.09-63.28,0-65.88,0h-.34v9.99h.34c.58,0,58.36-.03,59.37,0,.44.01,1.18.19,1.21,1.21,0,.21.02,32.63,0,33.12-.04.77-.46,1.19-1.21,1.22-1.01.03-59.46.04-60.05.04h-.34v9.99h.34c1.37,0,18.73.02,35.38.02,15.36,0,30.11-.01,31.18-.06,3.66-.16,5.74-2.14,5.85-5.57.06-1.87.06-42.52,0-44.39Z"/>
        <path class="cls-3" d="m211.56,162.4l-35.49,27.74-1.4,1.37.19-1.18v-14.91c0-2.92-1.24-4.87-3.69-5.81-2.72-1.04-4.94.31-6.03,1.2-.4.33-1.01.87-1.17,1.02l-7.79,7.44,7.29,7.72v14.3c0,.41.02.74.03.98.16,3.22,2.48,4.79,3.82,5.21.64.2,1.3.3,1.97.3,1.39,0,2.79-.43,4.03-1.26l.18-.12c.66-.43,1.29-.86,1.49-1.02l43.3-33.76.27-.21-6.99-9Z"/>
        <path class="cls-3" d="m111.44,229.25l-36.51,28.53-1.47,1.43.2-1.25v-15.34c0-3-1.28-5.01-3.8-5.97-2.79-1.07-5.08.32-6.19,1.24-.41.34-1.04.9-1.2,1.05l-8.01,7.65,7.5,7.94v14.72c0,.46.02.83.03,1,.16,3.31,2.54,4.92,3.92,5.35.65.21,1.33.31,2.02.31,1.43,0,2.88-.45,4.19-1.32.95-.63,1.5-1,1.67-1.15l44.55-34.74.27-.21-7.18-9.24Z"/>
      </g>
      <g>
        <path class="cls-1" d="m28.64,374.32c-2.73-.11-5.45-.22-8.18-.34-1.31-.08-2.62-.17-3.93-.25,0-.75.02-1.5.03-2.25l.05-1.2c3.31.15,6.61.29,9.92.43,1.36.06,3.35.16,5.08.32.11.01.23.02.34.03.01-.11.02-.22.03-.34.06-.57.1-1.09.15-1.62.07-.78.14-1.56.24-2.52.01-.13.03-.26.04-.39-.13,0-.26,0-.39.01-1.62.05-3.66-.03-5.3-.1-3.3-.14-6.6-.28-9.9-.43.07-.96.14-1.92.2-2.88,1.31.03,2.61.07,3.92.1,2.52.11,5.04.21,7.56.32,1.47.06,3.15.22,4.62.36.26.02.51.05.77.07.01-.11.02-.22.03-.34.13-1.37.29-2.65.53-4.29.02-.13.04-.27.06-.4-.13,0-.27,0-.4.01-1.71.05-3.89.05-5.43-.02-3.49-.14-6.97-.29-10.46-.45-1.41-.06-4.33-.2-5.77-.38-.14-.02-.27-.03-.41-.05.01.14.02.28.03.41.11,1.48-.02,4.51-.06,5.4-.14,2.99-.28,5.98-.42,8.97-.04.9-.2,3.93-.45,5.39-.02.14-.05.27-.07.41.14,0,.28,0,.42-.01,1.46-.04,4.41.09,5.83.16,3.71.17,7.42.32,11.14.47,1.45.06,3.1.21,4.55.35.29.03.58.05.88.08.01-.11.02-.22.03-.34.13-1.34.29-2.63.53-4.29.02-.13.04-.27.06-.4-.14,0-.27,0-.41.01-1.7.05-3.9.04-5.46-.02Z"/>
        <path class="cls-1" d="m62.1,375.69c-1.1-.97-2.2-1.93-3.3-2.9,4.67-.07,7.29-2.29,7.39-6.3.11-4.35-2.57-6.72-7.74-6.86-3.32-.1-6.64-.2-9.96-.3-1.41-.04-4.34-.15-5.78-.31-.14-.02-.28-.03-.41-.05.01.14.02.27.04.41.13,1.47.04,4.51,0,5.4-.11,3.16-.22,6.32-.33,9.47-.06,1.82-.15,3.34-.39,4.89-.02.14-.04.27-.06.41.14,0,.28-.01.42-.02,1.19-.04,1.56-.06,2.3-.03.75.03,1.16.07,2.35.19.14.01.27.03.41.04-.01-.14-.02-.27-.04-.41-.14-1.56-.12-3.09-.06-4.9.02-.62.04-1.23.06-1.85,1.6.05,3.2.1,4.8.15.76.7,1.51,1.4,2.27,2.09,1.69,1.54,3.63,3.34,5.25,5.15.04.04.07.08.11.12.05,0,.11,0,.16,0,1.03-.05,2.17-.05,3.49-.02,1.31.03,2.41.1,3.48.2.38.04.77.07,1.15.11-.3-.24-.6-.48-.9-.71-1.67-1.32-3.21-2.67-4.69-3.99Zm-3.76-7.37c-3.73-.11-7.47-.22-11.2-.35.02-.58.04-1.17.06-1.75.05-.75.1-1.5.15-2.25,1.31.02,2.61.03,3.92.05,2.4.08,4.8.15,7.19.22,2.52.07,2.78,1.24,2.75,2.12-.02.88-.35,2.04-2.87,1.96Z"/>
        <path class="cls-1" d="m96.59,375.39c-2.83-5.06-5.64-10.13-8.43-15.21-.07,0-.14,0-.21.01-1.59.08-3.21.06-4.78.03-.07,0-.13,0-.2,0-2.95,4.93-5.92,9.85-8.91,14.77-1.11,1.85-2.12,3.4-3.18,4.87l-.41.56c.23,0,.47-.02.7-.03.84-.03,1.78-.07,2.72-.05.92.02,1.89.1,2.75.17.09,0,.18.01.26.02.03-.08.06-.16.09-.25.45-1.26,1.08-2.52,1.8-3.65.02-.04.05-.08.07-.12,4.28.09,8.55.16,12.83.23.02.04.05.08.07.12.66,1.15,1.27,2.47,1.7,3.72.03.08.06.16.08.24.09,0,.17,0,.26-.01.84-.04,1.78-.08,2.72-.07.92.01,1.89.08,2.75.15.24.02.48.03.71.05-.14-.19-.27-.39-.41-.58-1.17-1.67-2.1-3.35-3-4.98Zm-7.34-3.28c-2.58-.04-5.15-.09-7.73-.14,1.33-2.36,2.66-4.72,3.98-7.09.94,1.82,1.87,3.64,2.81,5.47.31.59.62,1.17.93,1.76Z"/>
        <path class="cls-1" d="m126.35,370.09c1.25-.98,1.86-2.33,1.87-4.1,0-3.54-2.52-5.33-7.49-5.35-3.12-.01-6.25-.03-9.37-.05-1.41-.01-4.34-.03-5.78-.16-.14-.01-.28-.02-.41-.04.02.14.03.27.05.41.16,1.47.15,4.51.14,5.4-.03,2.99-.06,5.98-.09,8.98,0,.9-.05,3.94-.25,5.4-.02.14-.04.27-.05.41.14,0,.28-.02.42-.03,1.46-.1,4.41-.07,5.83-.06,3.65.03,7.3.05,10.95.06,6.18.02,7.47-3.13,7.47-5.77,0-2.41-1.1-4.12-3.27-5.1Zm-5.65-1.87c-3.49-.01-6.98-.03-10.47-.06.03-.96.06-1.93.1-2.89,1.31-.02,2.61-.03,3.92-.05,2.15.01,4.31.02,6.46.03,2.67,0,2.89.71,2.89,1.49,0,.78-.22,1.48-2.9,1.47Zm-10.5,4.54c3.99.03,7.99.05,11.98.07,2.34,0,2.82.7,2.81,1.74,0,1.08-.48,1.79-2.83,1.79-2.66,0-5.32-.02-7.98-.04-1.31-.03-2.63-.07-3.94-.11-.02-.75-.04-1.5-.06-2.25,0-.4,0-.8,0-1.2Z"/>
        <path class="cls-1" d="m153.96,376.26c-2.73.03-5.45.05-8.18.06-1.31-.02-2.63-.04-3.94-.06-.03-.75-.06-1.5-.08-2.25,0-.4,0-.8,0-1.2,3.31-.02,6.62-.04,9.92-.06,1.36-.01,3.35-.01,5.09.06.11,0,.23,0,.34.01,0-.11.01-.22.02-.34.03-.57.05-1.1.07-1.62.03-.78.06-1.57.11-2.53,0-.13.02-.26.02-.39-.13.01-.26.02-.39.03-1.62.13-3.66.15-5.29.16-3.3.03-6.6.05-9.9.06.02-.96.04-1.93.06-2.89,1.31-.03,2.61-.06,3.92-.1,2.52-.02,5.04-.03,7.56-.06,1.47-.01,3.15.06,4.64.13.26.01.52.02.77.03,0-.11.01-.22.02-.34.07-1.37.16-2.66.32-4.31.01-.13.03-.27.04-.4-.13.01-.27.02-.4.03-1.71.14-3.89.24-5.42.25-3.49.03-6.98.06-10.47.07-1.41,0-4.34.02-5.78-.09-.14-.01-.28-.02-.41-.03.02.14.03.27.05.41.18,1.47.21,4.5.21,5.4,0,2.99.02,5.98.02,8.98,0,.89,0,3.93-.18,5.4-.02.14-.03.27-.05.41.14-.01.28-.02.42-.03,1.46-.11,4.41-.13,5.83-.13,3.72-.02,7.43-.04,11.14-.08,1.45-.01,3.1.06,4.56.12.29.01.59.02.88.04,0-.11.01-.22.02-.34.06-1.35.16-2.64.32-4.31.01-.13.03-.27.04-.4-.14.01-.27.02-.41.03-1.7.14-3.89.24-5.45.25Z"/>
        <path class="cls-1" d="m191,375.08c-.08-3.33-.16-6.66-.24-9.98-.04-1.82-.04-3.34.1-4.9,0-.14,0-.27,0-.41-.14.01-.27.03-.41.04-1.12.11-1.5.14-2.24.16-.75.02-1.18,0-2.34-.06-.14,0-.27-.01-.41-.02.02.14.04.27.06.41.22,1.55.29,3.07.33,4.89.05,2.13.09,4.27.14,6.4.04.77.08,1.55.11,2.32-4.96-4.49-9.9-8.99-14.8-13.51-.03-.03-.07-.06-.1-.09-.74.01-1.47.02-2.21.04-.75.01-1.19-.01-2.33-.08-.14,0-.27-.02-.41-.02.02.14.04.27.05.41.21,1.55.27,3.08.29,4.89.05,3.33.1,6.66.14,9.98.03,1.82.01,3.35-.15,4.9-.01.14-.03.27-.04.41.14-.01.28-.02.41-.04,1.18-.11,1.56-.14,2.29-.15.75-.01,1.16,0,2.35.07.14,0,.28.02.41.02-.02-.14-.04-.27-.06-.41-.21-1.55-.27-3.08-.3-4.89-.03-2.13-.07-4.27-.1-6.4-.03-.76-.07-1.53-.1-2.29,4.95,4.54,9.93,9.07,14.94,13.58.74-.02,1.49-.03,2.23-.05.75-.02,1.16,0,2.35.06.14,0,.28.01.41.02-.02-.14-.04-.27-.06-.41-.22-1.55-.3-3.07-.34-4.89Z"/>
        <path class="cls-1" d="m213.98,359.27c-4.1.14-8.19.26-12.29.38-1.43.04-3.08,0-4.52-.04-.29,0-.59-.02-.88-.02,0,.11,0,.22-.01.34-.04,1.37-.12,2.67-.25,4.31-.01.13-.02.27-.03.4.13-.01.27-.03.4-.04,1.69-.16,3.87-.3,5.42-.34,1.24-.04,2.47-.07,3.71-.11.1,3.51.21,7.03.31,10.54.05,1.82.06,3.35-.08,4.9-.01.14-.02.27-.04.41.14-.01.28-.03.41-.04,1.18-.12,1.56-.16,2.29-.18.75-.02,1.16,0,2.35.04.14,0,.28.01.41.02-.02-.14-.04-.27-.06-.41-.24-1.55-.32-3.07-.38-4.89-.11-3.51-.22-7.03-.34-10.54,1.24-.04,2.47-.08,3.71-.12,1.47-.05,3.15-.01,4.64.01.26,0,.52,0,.78.01,0-.11,0-.23,0-.34.03-1.35.09-2.64.21-4.31,0-.13.02-.27.03-.4-.13.01-.27.03-.4.04-1.7.18-3.88.33-5.41.38Z"/>
        <path class="cls-1" d="m235.17,358.05c-8.33.35-13.37,4.58-13.13,11.1.23,6.52,5.6,10.39,14.02,10.04,8.41-.35,13.44-4.66,13.13-11.17-.31-6.52-5.68-10.31-14.01-9.96Zm.69,16.53c-5.47.23-8.69-1.83-8.84-5.62-.14-3.79,2.89-6.08,8.34-6.31,5.44-.23,8.66,1.8,8.83,5.59.17,3.79-2.86,6.11-8.33,6.34Z"/>
      </g>
    </g>
  </g>
</svg>